<svg width="16" height="13" viewBox="0 0 16 13" fill="none" xmlns="http://www.w3.org/2000/svg">
<path id="Vector" d="M14.2992 0.0417164L0.927442 5.44834C-0.141959 5.67752 -0.336453 6.67341 0.606337 7.09328L3.94216 7.8683C4.17828 7.97342 4.45648 8.02317 4.73609 8.01027C5.0157 7.99737 5.28206 7.9225 5.49621 7.7966L11.1634 4.46536C11.4706 4.28479 11.0374 4.92026 10.7782 5.13449L6.8441 8.73597C6.6634 8.88513 6.55596 9.07065 6.53749 9.2654C6.51903 9.46014 6.59051 9.65389 6.74148 9.81831L11.6259 12.5778C12.2284 13.2343 13.6583 13.0988 13.9873 12.3541L15.9401 1.18497C16.2499 0.483139 15.3064 -0.174046 14.2992 0.0417164Z" fill="#040000"/>
</svg>
